<mxfile host="app.diagrams.net" modified="2024-01-15T08:24:42.231Z" agent="Mozilla/5.0 (Windows NT 10.0; Win64; x64) AppleWebKit/537.36 (KHTML, like Gecko) Chrome/120.0.0.0 Safari/537.36" etag="yPtotqVJtIRTJhHYyiaO" version="22.1.18" type="github">
  <diagram name="Page-1" id="xtM_fLJpAYjHuJDKJ-BW">
    <mxGraphModel dx="2950" dy="1114" grid="1" gridSize="10" guides="1" tooltips="1" connect="1" arrows="1" fold="1" page="1" pageScale="1" pageWidth="850" pageHeight="1100" math="0" shadow="0">
      <root>
        <mxCell id="0" />
        <mxCell id="1" parent="0" />
        <mxCell id="6oaKuI4-RCtA3PXXqp6w-6" style="edgeStyle=orthogonalEdgeStyle;rounded=0;orthogonalLoop=1;jettySize=auto;html=1;exitX=0;exitY=0.75;exitDx=0;exitDy=0;entryX=1;entryY=0.75;entryDx=0;entryDy=0;strokeWidth=4;" parent="1" source="6oaKuI4-RCtA3PXXqp6w-1" target="6oaKuI4-RCtA3PXXqp6w-2" edge="1">
          <mxGeometry relative="1" as="geometry" />
        </mxCell>
        <mxCell id="6oaKuI4-RCtA3PXXqp6w-1" value="&lt;b&gt;&lt;font style=&quot;font-size: 25px;&quot;&gt;RESTful API&lt;/font&gt;&lt;/b&gt;" style="rounded=1;whiteSpace=wrap;html=1;labelBackgroundColor=none;strokeWidth=2;" parent="1" vertex="1">
          <mxGeometry x="-280" y="210" width="227.5" height="70" as="geometry" />
        </mxCell>
        <mxCell id="6oaKuI4-RCtA3PXXqp6w-4" style="edgeStyle=orthogonalEdgeStyle;rounded=0;orthogonalLoop=1;jettySize=auto;html=1;exitX=1;exitY=0.25;exitDx=0;exitDy=0;entryX=0;entryY=0.25;entryDx=0;entryDy=0;strokeWidth=4;" parent="1" source="6oaKuI4-RCtA3PXXqp6w-2" target="6oaKuI4-RCtA3PXXqp6w-1" edge="1">
          <mxGeometry relative="1" as="geometry" />
        </mxCell>
        <mxCell id="6oaKuI4-RCtA3PXXqp6w-2" value="&lt;b&gt;&lt;font style=&quot;font-size: 25px;&quot;&gt;Web Application&lt;/font&gt;&lt;/b&gt;" style="rounded=1;whiteSpace=wrap;html=1;labelBackgroundColor=none;strokeWidth=3;" parent="1" vertex="1">
          <mxGeometry x="-670" y="210" width="227.5" height="70" as="geometry" />
        </mxCell>
        <mxCell id="6oaKuI4-RCtA3PXXqp6w-7" value="&lt;b&gt;&lt;font style=&quot;font-size: 25px;&quot;&gt;ODM&lt;/font&gt;&lt;/b&gt;" style="rounded=1;whiteSpace=wrap;html=1;labelBackgroundColor=none;strokeWidth=2;" parent="1" vertex="1">
          <mxGeometry x="100" y="210" width="227.5" height="70" as="geometry" />
        </mxCell>
        <mxCell id="6oaKuI4-RCtA3PXXqp6w-9" value="&lt;span style=&quot;font-size: 25px;&quot;&gt;&lt;b&gt;Database&lt;/b&gt;&lt;/span&gt;" style="rounded=1;whiteSpace=wrap;html=1;labelBackgroundColor=none;strokeWidth=2;" parent="1" vertex="1">
          <mxGeometry x="460" y="210" width="227.5" height="70" as="geometry" />
        </mxCell>
        <mxCell id="6oaKuI4-RCtA3PXXqp6w-10" value="" style="endArrow=classic;html=1;rounded=0;entryX=0;entryY=0.25;entryDx=0;entryDy=0;exitX=1;exitY=0.25;exitDx=0;exitDy=0;strokeWidth=4;" parent="1" source="6oaKuI4-RCtA3PXXqp6w-1" target="6oaKuI4-RCtA3PXXqp6w-7" edge="1">
          <mxGeometry width="50" height="50" relative="1" as="geometry">
            <mxPoint x="210" y="430" as="sourcePoint" />
            <mxPoint x="260" y="380" as="targetPoint" />
          </mxGeometry>
        </mxCell>
        <mxCell id="6oaKuI4-RCtA3PXXqp6w-11" value="" style="endArrow=classic;html=1;rounded=0;entryX=1;entryY=0.75;entryDx=0;entryDy=0;exitX=0;exitY=0.75;exitDx=0;exitDy=0;strokeWidth=4;" parent="1" source="6oaKuI4-RCtA3PXXqp6w-7" target="6oaKuI4-RCtA3PXXqp6w-1" edge="1">
          <mxGeometry width="50" height="50" relative="1" as="geometry">
            <mxPoint x="30" y="420" as="sourcePoint" />
            <mxPoint x="260" y="380" as="targetPoint" />
          </mxGeometry>
        </mxCell>
        <mxCell id="6oaKuI4-RCtA3PXXqp6w-12" value="" style="endArrow=classic;html=1;rounded=0;entryX=0;entryY=0.25;entryDx=0;entryDy=0;exitX=1;exitY=0.25;exitDx=0;exitDy=0;strokeWidth=4;" parent="1" source="6oaKuI4-RCtA3PXXqp6w-7" target="6oaKuI4-RCtA3PXXqp6w-9" edge="1">
          <mxGeometry width="50" height="50" relative="1" as="geometry">
            <mxPoint x="210" y="430" as="sourcePoint" />
            <mxPoint x="260" y="380" as="targetPoint" />
          </mxGeometry>
        </mxCell>
        <mxCell id="6oaKuI4-RCtA3PXXqp6w-13" value="" style="endArrow=classic;html=1;rounded=0;entryX=1;entryY=0.75;entryDx=0;entryDy=0;exitX=0;exitY=0.75;exitDx=0;exitDy=0;strokeWidth=4;" parent="1" source="6oaKuI4-RCtA3PXXqp6w-9" target="6oaKuI4-RCtA3PXXqp6w-7" edge="1">
          <mxGeometry width="50" height="50" relative="1" as="geometry">
            <mxPoint x="210" y="430" as="sourcePoint" />
            <mxPoint x="260" y="380" as="targetPoint" />
          </mxGeometry>
        </mxCell>
        <mxCell id="6oaKuI4-RCtA3PXXqp6w-14" value="&lt;font style=&quot;font-size: 25px;&quot;&gt;React&lt;/font&gt;" style="text;html=1;strokeColor=none;fillColor=none;align=center;verticalAlign=middle;whiteSpace=wrap;rounded=0;" parent="1" vertex="1">
          <mxGeometry x="-580" y="160" width="60" height="30" as="geometry" />
        </mxCell>
        <mxCell id="6oaKuI4-RCtA3PXXqp6w-16" value="&lt;font style=&quot;font-size: 25px;&quot;&gt;Node/Express&lt;/font&gt;" style="text;html=1;strokeColor=none;fillColor=none;align=center;verticalAlign=middle;whiteSpace=wrap;rounded=0;" parent="1" vertex="1">
          <mxGeometry x="-196.25" y="160" width="60" height="30" as="geometry" />
        </mxCell>
        <mxCell id="6oaKuI4-RCtA3PXXqp6w-17" value="&lt;font style=&quot;font-size: 25px;&quot;&gt;Mongoose&lt;/font&gt;" style="text;html=1;strokeColor=none;fillColor=none;align=center;verticalAlign=middle;whiteSpace=wrap;rounded=0;" parent="1" vertex="1">
          <mxGeometry x="183.75" y="160" width="60" height="30" as="geometry" />
        </mxCell>
        <mxCell id="6oaKuI4-RCtA3PXXqp6w-18" value="&lt;font style=&quot;font-size: 25px;&quot;&gt;MongoDB&lt;br&gt;(Atlas)&lt;br&gt;&lt;/font&gt;" style="text;html=1;strokeColor=none;fillColor=none;align=center;verticalAlign=middle;whiteSpace=wrap;rounded=0;" parent="1" vertex="1">
          <mxGeometry x="543.75" y="160" width="60" height="30" as="geometry" />
        </mxCell>
        <mxCell id="6oaKuI4-RCtA3PXXqp6w-20" value="&lt;b&gt;&lt;font style=&quot;font-size: 25px;&quot;&gt;OpenAI LLM&lt;/font&gt;&lt;/b&gt;" style="rounded=1;whiteSpace=wrap;html=1;labelBackgroundColor=none;strokeWidth=2;" parent="1" vertex="1">
          <mxGeometry x="-280" y="410" width="227.5" height="70" as="geometry" />
        </mxCell>
        <mxCell id="6oaKuI4-RCtA3PXXqp6w-21" value="&lt;span style=&quot;font-size: 25px;&quot;&gt;gpt 3.5-turbo&lt;/span&gt;" style="text;html=1;strokeColor=none;fillColor=none;align=center;verticalAlign=middle;whiteSpace=wrap;rounded=0;" parent="1" vertex="1">
          <mxGeometry x="-250" y="490" width="156.25" height="30" as="geometry" />
        </mxCell>
        <mxCell id="6oaKuI4-RCtA3PXXqp6w-22" value="" style="endArrow=classic;html=1;rounded=0;entryX=0.25;entryY=1;entryDx=0;entryDy=0;exitX=0.25;exitY=0;exitDx=0;exitDy=0;strokeWidth=4;" parent="1" source="6oaKuI4-RCtA3PXXqp6w-20" target="6oaKuI4-RCtA3PXXqp6w-1" edge="1">
          <mxGeometry width="50" height="50" relative="1" as="geometry">
            <mxPoint x="-80" y="460" as="sourcePoint" />
            <mxPoint x="-30" y="410" as="targetPoint" />
          </mxGeometry>
        </mxCell>
        <mxCell id="6oaKuI4-RCtA3PXXqp6w-23" value="" style="endArrow=classic;html=1;rounded=0;exitX=0.75;exitY=1;exitDx=0;exitDy=0;entryX=0.75;entryY=0;entryDx=0;entryDy=0;strokeWidth=4;" parent="1" source="6oaKuI4-RCtA3PXXqp6w-1" target="6oaKuI4-RCtA3PXXqp6w-20" edge="1">
          <mxGeometry width="50" height="50" relative="1" as="geometry">
            <mxPoint x="-80" y="460" as="sourcePoint" />
            <mxPoint x="-30" y="410" as="targetPoint" />
          </mxGeometry>
        </mxCell>
        <mxCell id="6oaKuI4-RCtA3PXXqp6w-24" value="&lt;font size=&quot;1&quot; style=&quot;&quot;&gt;&lt;b style=&quot;font-size: 45px;&quot;&gt;High Level Architecture&lt;/b&gt;&lt;/font&gt;" style="text;html=1;strokeColor=none;fillColor=none;align=center;verticalAlign=middle;whiteSpace=wrap;rounded=0;" parent="1" vertex="1">
          <mxGeometry x="-290" y="50" width="570" height="30" as="geometry" />
        </mxCell>
      </root>
    </mxGraphModel>
  </diagram>
</mxfile>
